<svg width="46.46" height="29.13" viewBox="0 0 567 356" fill="none" xmlns="http://www.w3.org/2000/svg">
<path d="M566.448 143.009C566.448 141.869 565.828 140.801 564.833 140.223L557.615 136.056V117.734C557.615 116.582 557 115.515 556 114.942L357.667 0.42578C356.672 -0.141927 355.432 -0.141927 354.443 0.42578L10.4427 199.039C9.44271 199.612 8.82817 200.68 8.82817 201.831V220.154L1.61458 224.32C0.92709 224.721 0.52603 225.409 0.34375 226.18C0.125003 226.627 0 227.122 0 227.627V232.414C0 233.565 0.614596 234.633 1.61454 235.206L208.801 354.804C209.296 355.085 209.864 355.236 210.416 355.236C210.968 355.236 211.53 355.085 212.03 354.804L564.857 151.111C565.857 150.538 566.471 149.47 566.471 148.319V143.538C566.471 143.465 566.466 143.382 566.456 143.314C566.451 143.21 566.461 143.106 566.461 143.012L566.448 143.009ZM560 146.457L210.4 348.297L6.45337 230.548V228.964L12.0471 225.73V227.621H12.0627L210.396 342.147L214.526 339.752V313.96L210.396 316.334L18.2627 205.422L15.2679 203.698V203.693L356.055 6.93325L478.232 77.4799L551.164 119.584L404.591 204.209L400.455 201.829V227.621L404.591 230.017L554.391 143.533V141.632L560.005 144.871L560 146.457Z" fill="#C6F7E7"/>
<path d="M378.781 163.062L311.625 201.838L333.975 214.723L457.287 143.535V117.732L384.688 159.644L378.781 163.062Z" fill="#929EDA"/>
<path d="M426.661 130.635L449.011 117.734L418.427 100.067L351.911 61.666V87.4687L399.973 115.218L426.661 130.635Z" fill="#C6F7E7"/>
<path d="M360.168 229.862L258.938 288.31L206.245 257.884V283.686L258.938 314.098L360.168 255.65H360.183V229.848H360.168V229.862Z" fill="#C6F7E7"/>
<path d="M314.728 57.6501L356.04 33.8008L399.952 59.1501L523.775 130.634L546.119 117.733L485.739 82.8784L479.848 79.4669L356.041 7.98828L350.937 10.9519L306.979 36.3319L263.083 61.6652L285.421 74.5663L314.728 57.6501Z" fill="#C6F7E7"/>
<path d="M351.915 229.85L303.368 201.834V227.626L329.571 242.751L351.915 229.85Z" fill="#C6F7E7"/>
<path d="M250.154 207.063L263.087 199.589V173.803L235.447 189.756L214.54 201.839L236.879 214.725L250.154 207.063Z" fill="#C6F7E7"/>
<path d="M225.915 238.969L231.8 242.365L258.951 258.042L263.086 255.646V229.843L258.951 232.239L245.576 224.52L210.399 204.203L199.633 210.417L117.44 257.881L139.768 270.782H139.778L210.398 230.006L225.915 238.969Z" fill="#C6F7E7"/>
<path d="M252.141 149.849L258.943 145.917L329.563 186.698L351.907 173.797L270.762 126.943L258.944 120.125L248.835 125.964L202.231 152.849L183.903 163.437L113.283 204.208L109.153 201.833V227.625L113.283 230.011L190.106 185.661L214.726 171.443L252.141 149.849Z" fill="#929EDA"/>
<path d="M192.141 128.423L258.948 89.8655L259.224 90.0114L356.041 145.918L360.177 143.533H360.192V117.73H360.177V117.746L356.041 120.126L346.515 114.615L258.947 64.0527L250.812 68.7558L187.093 105.542L168.197 116.444L20.3306 201.834L42.6692 214.72L175.279 138.168L192.141 128.423Z" fill="#C6F7E7"/>
<path d="M380.741 235.249L384.502 237.728L385.335 236.473L381.564 233.988L380.741 235.249Z" fill="#C6F7E7"/>
<path d="M363.408 223.822L369.007 227.509L369.83 226.249L364.236 222.566L363.408 223.822Z" fill="#C6F7E7"/>
<path d="M372.075 229.529L377.679 233.222L378.502 231.962L372.903 228.279L372.075 229.529Z" fill="#C6F7E7"/>
<path d="M360.448 216.557L356.12 219.041L360.292 221.781L361.115 220.52L358.995 219.135L361.203 217.864L360.448 216.557Z" fill="#C6F7E7"/>
<path d="M490.755 141.302L497.338 137.516L498.088 138.823L491.505 142.609L490.755 141.302Z" fill="#C6F7E7"/>
<path d="M395.968 196.036L402.546 192.244L403.301 193.551L396.723 197.343L395.968 196.036Z" fill="#C6F7E7"/>
<path d="M406.541 189.956L407.296 191.263L413.864 187.471L413.114 186.164L406.541 189.956Z" fill="#C6F7E7"/>
<path d="M385.488 202.102L386.233 203.399L392.806 199.618L392.056 198.311L385.488 202.102Z" fill="#C6F7E7"/>
<path d="M417.035 183.863L423.618 180.076L424.368 181.383L417.785 185.17L417.035 183.863Z" fill="#C6F7E7"/>
<path d="M480.261 147.383L481.016 148.68L487.589 144.899L486.834 143.592L480.261 147.383Z" fill="#C6F7E7"/>
<path d="M459.208 159.542L459.958 160.85L466.526 157.058L465.781 155.756L459.208 159.542Z" fill="#C6F7E7"/>
<path d="M469.741 153.462L470.496 154.769L477.059 150.977L476.314 149.67L469.741 153.462Z" fill="#C6F7E7"/>
<path d="M374.901 208.196L381.479 204.404L382.235 205.712L375.657 209.503L374.901 208.196Z" fill="#C6F7E7"/>
<path d="M438.101 171.702L444.685 167.916L445.435 169.223L438.851 173.01L438.101 171.702Z" fill="#C6F7E7"/>
<path d="M364.421 214.276L365.166 215.578L371.739 211.792L370.984 210.484L364.421 214.276Z" fill="#C6F7E7"/>
<path d="M427.608 177.795L428.363 179.102L434.936 175.305L434.181 173.998L427.608 177.795Z" fill="#C6F7E7"/>
<path d="M448.675 165.622L449.419 166.929L455.992 163.137L455.242 161.83L448.675 165.622Z" fill="#C6F7E7"/>
<path d="M501.341 132.756L503.477 133.986L501.341 135.22L502.091 136.517L506.492 133.986L502.091 131.449L501.341 132.756Z" fill="#C6F7E7"/>
<path d="M469.035 114.143L469.79 112.836L476.488 116.695L475.733 118.003L469.035 114.143Z" fill="#C6F7E7"/>
<path d="M487.248 122.876L480.555 119.021L479.811 120.329L486.493 124.183L487.248 122.876Z" fill="#C6F7E7"/>
<path d="M465.715 110.449L459.032 106.6L458.288 107.896L464.965 111.756L465.715 110.449Z" fill="#C6F7E7"/>
<path d="M394.461 69.3027L393.706 70.61L400.399 74.4694L401.144 73.1621L394.461 69.3027Z" fill="#C6F7E7"/>
<path d="M454.955 104.236L448.267 100.387L447.512 101.684L454.205 105.543L454.955 104.236Z" fill="#C6F7E7"/>
<path d="M405.221 75.5293L404.471 76.8262L411.159 80.6855L411.909 79.3782L405.221 75.5293Z" fill="#C6F7E7"/>
<path d="M383.701 63.0898L382.946 64.3971L389.628 68.2565L390.384 66.9492L383.701 63.0898Z" fill="#C6F7E7"/>
<path d="M437.501 94.1699L436.746 95.4668L443.439 99.3261L444.184 98.024L437.501 94.1699Z" fill="#C6F7E7"/>
<path d="M422.661 85.5963L415.979 81.7422L415.224 83.0443L421.917 86.9036L422.661 85.5963Z" fill="#C6F7E7"/>
<path d="M426.741 87.9551L425.997 89.252L432.679 93.1165L433.429 91.8092L426.741 87.9551Z" fill="#C6F7E7"/>
<path d="M498.008 129.089L491.331 125.234L490.571 126.531L497.258 130.396L498.008 129.089Z" fill="#C6F7E7"/>
<path d="M372.928 56.875L372.183 58.1823L378.865 62.0416L379.615 60.7395L372.928 56.875Z" fill="#C6F7E7"/>
<path d="M362.168 50.6758L361.413 51.9831L368.105 55.8424L368.85 54.5351L362.168 50.6758Z" fill="#C6F7E7"/>
<path d="M357.341 49.623L358.091 48.3157L354.451 46.2168L350.805 48.3157L351.56 49.623L354.451 47.9512L357.341 49.623Z" fill="#C6F7E7"/>
<path d="M317.488 67.5566L311.233 71.1764L311.983 72.4784L318.243 68.8639L317.488 67.5566Z" fill="#C6F7E7"/>
<path d="M327.381 61.8359L321.126 65.4505L321.871 66.7578L328.126 63.1432L327.381 61.8359Z" fill="#C6F7E7"/>
<path d="M347.168 50.4102L340.918 54.0247L341.673 55.3216L347.923 51.7174L347.168 50.4102Z" fill="#C6F7E7"/>
<path d="M337.275 56.1289L331.014 59.733L331.764 61.0403L338.019 57.431L337.275 56.1289Z" fill="#C6F7E7"/>
<path d="M307.595 73.2754L303.194 75.8066L307.595 78.3378L308.345 77.0357L306.22 75.8065L308.345 74.5774L307.595 73.2754Z" fill="#C6F7E7"/>
<path d="M352.195 104.143L352.945 102.836L359.366 106.529L358.616 107.836L352.195 104.143Z" fill="#C6F7E7"/>
<path d="M328.754 88.8365L322.348 85.1387L321.593 86.4407L328.004 90.1438L328.754 88.8365Z" fill="#C6F7E7"/>
<path d="M372.621 115.928L373.371 114.621L379.793 118.314L379.043 119.621L372.621 115.928Z" fill="#C6F7E7"/>
<path d="M368.848 113.716L369.603 112.409L363.192 108.711L362.442 110.018L368.848 113.716Z" fill="#C6F7E7"/>
<path d="M349.181 100.622L343.483 97.3301L343.463 97.3145L342.687 98.6165L348.426 101.929L349.181 100.622Z" fill="#C6F7E7"/>
<path d="M383.621 120.502L382.866 121.809L389.283 125.507L390.027 124.2L383.621 120.502Z" fill="#C6F7E7"/>
<path d="M338.968 94.7292L333.228 91.4062L332.838 92.0573L332.609 92.8021L338.223 96.0365L338.968 94.7292Z" fill="#C6F7E7"/>
<path d="M318.555 82.929L312.153 79.2363L311.393 80.528L317.799 84.2362L318.555 82.929Z" fill="#C6F7E7"/>
<path d="M393.835 126.396L393.079 127.704L399.496 131.407L400.241 130.1L393.835 126.396Z" fill="#C6F7E7"/>
<path d="M404.048 137.368L408.444 134.837L404.048 132.301L403.298 133.608L405.428 134.837L403.298 136.061L404.048 137.368Z" fill="#C6F7E7"/>
<path d="M372.448 153.85L378.885 150.146L379.635 151.454L373.198 155.157L372.448 153.85Z" fill="#C6F7E7"/>
<path d="M382.755 147.916L383.499 149.223L389.937 145.505L389.187 144.197L382.755 147.916Z" fill="#C6F7E7"/>
<path d="M393.035 141.996L393.785 143.303L400.217 139.585L399.472 138.277L393.035 141.996Z" fill="#C6F7E7"/>
<path d="M362.168 159.782L368.616 156.074L369.366 157.382L362.918 161.09L362.168 159.782Z" fill="#C6F7E7"/>
<path d="M359.141 163.303L358.386 162.006L355.49 163.667L352.61 162.006L351.855 163.303L355.49 165.407L359.141 163.303Z" fill="#C6F7E7"/>
<path d="M277.315 118.529L270.908 114.836L270.153 116.138L276.565 119.836L277.315 118.529Z" fill="#C6F7E7"/>
<path d="M281.115 120.729L280.37 122.036L286.787 125.739L287.537 124.432L281.115 120.729Z" fill="#C6F7E7"/>
<path d="M259.915 110.249L260.665 108.941L267.086 112.634L266.336 113.941L259.915 110.249Z" fill="#C6F7E7"/>
<path d="M301.555 132.516L300.799 133.823L307.206 137.516L307.961 136.208L301.555 132.516Z" fill="#C6F7E7"/>
<path d="M327.581 147.543L321.967 144.309L321.211 145.616L326.961 148.939L327.347 148.293L327.581 147.543Z" fill="#C6F7E7"/>
<path d="M290.541 127.928L291.291 126.621L297.713 130.314L296.963 131.621L290.541 127.928Z" fill="#C6F7E7"/>
<path d="M332.181 150.195L331.431 151.497L337.817 155.211L338.593 153.919L332.181 150.195Z" fill="#C6F7E7"/>
<path d="M342.395 156.104L341.645 157.406L348.046 161.103L348.806 159.812L342.395 156.104Z" fill="#C6F7E7"/>
<path d="M317.501 141.729L311.756 138.416L311.006 139.723L316.709 143.015L316.73 143.031L317.501 141.729Z" fill="#C6F7E7"/>
<path d="M256.155 108.036L256.905 106.734L253.269 104.635L249.628 106.734L250.378 108.036L253.269 106.364L256.155 108.036Z" fill="#C6F7E7"/>
<path d="M245.555 109.09L238.883 112.934L239.633 114.241L246.305 110.392L245.555 109.09Z" fill="#C6F7E7"/>
<path d="M110.035 187.303L116.712 183.459L117.467 184.766L110.79 188.61L110.035 187.303Z" fill="#C6F7E7"/>
<path d="M181.128 146.275L174.451 150.135L175.206 151.432L181.873 147.583L181.128 146.275Z" fill="#C6F7E7"/>
<path d="M202.608 133.889L195.931 137.743L196.686 139.04L203.353 135.196L202.608 133.889Z" fill="#C6F7E7"/>
<path d="M185.195 143.929L191.882 140.08L192.632 141.387L185.945 145.236L185.195 143.929Z" fill="#C6F7E7"/>
<path d="M170.381 152.477L163.715 156.331L164.459 157.633L171.136 153.784L170.381 152.477Z" fill="#C6F7E7"/>
<path d="M159.648 158.662L152.986 162.532L153.742 163.839L160.419 159.964L159.648 158.662Z" fill="#C6F7E7"/>
<path d="M120.781 181.13L127.458 177.281L128.214 178.589L121.536 182.437L120.781 181.13Z" fill="#C6F7E7"/>
<path d="M148.928 164.875L142.251 168.734L142.996 170.042L149.678 166.177L148.928 164.875Z" fill="#C6F7E7"/>
<path d="M138.181 171.062L131.504 174.927L132.259 176.229L138.926 172.37L138.181 171.062Z" fill="#C6F7E7"/>
<path d="M77.8213 205.916L78.5661 207.223L85.2483 203.348L84.4671 202.057L77.8213 205.916Z" fill="#C6F7E7"/>
<path d="M99.3013 193.516L100.046 194.823L106.723 190.969L105.968 189.672L99.3013 193.516Z" fill="#C6F7E7"/>
<path d="M228.155 119.142L234.832 115.293L235.587 116.6L228.91 120.449L228.155 119.142Z" fill="#C6F7E7"/>
<path d="M67.0879 212.115L67.8431 213.422L74.5098 209.579L73.765 208.271L67.0879 212.115Z" fill="#C6F7E7"/>
<path d="M206.675 131.542L213.352 127.693L214.107 129.001L207.43 132.85L206.675 131.542Z" fill="#C6F7E7"/>
<path d="M224.075 121.49L217.403 125.344L218.153 126.652L224.825 122.798L224.075 121.49Z" fill="#C6F7E7"/>
<path d="M88.5544 199.717L89.3097 201.024L95.9763 197.17L95.2263 195.873L88.5544 199.717Z" fill="#C6F7E7"/>
<path d="M63.0214 214.477L58.6255 217.008L63.0318 219.544L63.7766 218.232L61.6515 217.008L63.7766 215.784L63.0214 214.477Z" fill="#C6F7E7"/>
<path d="M76.9812 227.61L83.3771 231.298L84.1271 229.99L77.7364 226.303L76.9812 227.61Z" fill="#C6F7E7"/>
<path d="M66.8079 221.73L73.2089 225.423L73.9537 224.115L67.563 220.428L66.8079 221.73Z" fill="#C6F7E7"/>
<path d="M97.3413 239.356L103.732 243.049L104.487 241.741L98.0965 238.049L97.3413 239.356Z" fill="#C6F7E7"/>
<path d="M87.168 233.489L93.5586 237.176L94.3138 235.869L87.918 232.182L87.168 233.489Z" fill="#C6F7E7"/>
<path d="M111.155 245.596L108.269 243.924L107.514 245.231L111.155 247.33L114.8 245.236L114.056 243.924L111.155 245.596Z" fill="#C6F7E7"/>
<path d="M149.635 225.116L156.103 221.382L155.353 220.074L148.879 223.809L149.635 225.116Z" fill="#C6F7E7"/>
<path d="M159.968 219.155L166.426 215.421L165.676 214.113L159.208 217.853L159.968 219.155Z" fill="#C6F7E7"/>
<path d="M118.648 242.995L125.122 239.256L124.356 237.959L117.898 241.688L118.648 242.995Z" fill="#C6F7E7"/>
<path d="M139.315 231.076L145.783 227.341L145.039 226.039L138.565 229.768L139.315 231.076Z" fill="#C6F7E7"/>
<path d="M241.834 170.143L248.303 166.414L249.058 167.721L242.59 171.451L241.834 170.143Z" fill="#C6F7E7"/>
<path d="M128.981 237.035L135.45 233.301L134.705 232.004L128.236 235.738L128.981 237.035Z" fill="#C6F7E7"/>
<path d="M190.195 199.997L191.038 201.215L197.408 197.533L196.663 196.236L190.892 199.559L190.195 199.997Z" fill="#C6F7E7"/>
<path d="M179.861 205.917L186.33 202.188L187.085 203.495L180.617 207.224L179.861 205.917Z" fill="#C6F7E7"/>
<path d="M201.274 195.303L207.738 191.569L206.993 190.262L200.519 193.996L201.274 195.303Z" fill="#C6F7E7"/>
<path d="M170.288 213.183L176.757 209.454L176.001 208.146L169.538 211.876L170.288 213.183Z" fill="#C6F7E7"/>
<path d="M221.181 182.063L227.65 178.334L228.405 179.641L221.936 183.37L221.181 182.063Z" fill="#C6F7E7"/>
<path d="M218.061 185.61L217.306 184.303L210.837 188.042L211.592 189.35L218.061 185.61Z" fill="#C6F7E7"/>
<path d="M232.248 177.409L238.717 173.674L237.967 172.367L231.498 176.102L232.248 177.409Z" fill="#C6F7E7"/>
<path d="M252.155 164.196L252.91 165.498L255.8 163.831L258.681 165.498L259.436 164.196L255.8 162.092L252.155 164.196Z" fill="#C6F7E7"/>
<path d="M301.541 188.49L294.974 184.709L294.323 186.068L300.791 189.797L301.541 188.49Z" fill="#C6F7E7"/>
<path d="M262.608 167.77L263.363 166.463L269.931 170.244L269.176 171.551L262.608 167.77Z" fill="#C6F7E7"/>
<path d="M280.488 176.343L273.915 172.557L273.17 173.854L279.738 177.645L280.488 176.343Z" fill="#C6F7E7"/>
<path d="M291.008 182.423L284.44 178.631L283.69 179.938L290.258 183.73L291.008 182.423Z" fill="#C6F7E7"/>
<path d="M305.501 195.863L309.902 193.326L305.501 190.795L304.746 192.097L306.876 193.326L304.746 194.555L305.501 195.863Z" fill="#C6F7E7"/>
<path d="M276.155 211.036L282.222 207.541L282.972 208.848L276.905 212.343L276.155 211.036Z" fill="#C6F7E7"/>
<path d="M292.528 203.356L291.773 202.049L285.715 205.554L286.46 206.851L292.528 203.356Z" fill="#C6F7E7"/>
<path d="M302.035 197.849L301.285 196.547L295.217 200.042L295.972 201.349L302.035 197.849Z" fill="#C6F7E7"/>
<path d="M273.488 214.342L272.733 213.035L266.67 216.535L267.415 217.842L273.488 214.342Z" fill="#C6F7E7"/>
<path d="M263.954 222.303L261.824 221.068L263.954 219.844L263.204 218.537L258.809 221.068L263.204 223.61L263.954 222.303Z" fill="#C6F7E7"/>
<path d="M284.168 233.983L277.814 230.316L277.064 231.618L283.423 235.285L284.168 233.983Z" fill="#C6F7E7"/>
<path d="M274.061 228.13L267.697 224.469L266.952 225.771L273.306 229.438L274.061 228.13Z" fill="#C6F7E7"/>
<path d="M288.595 236.529L287.881 237.863L293.527 241.113L294.277 239.805L288.657 236.566L288.595 236.529Z" fill="#C6F7E7"/>
<path d="M304.381 245.648L298.017 241.977L297.261 243.284L303.626 246.956L304.381 245.648Z" fill="#C6F7E7"/>
<path d="M308.128 252.876L312.534 250.345L308.133 247.809L307.388 249.116L309.513 250.345L307.378 251.579L308.128 252.876Z" fill="#C6F7E7"/>
<path d="M277.648 268.702L283.903 265.104L284.653 266.411L278.398 270.01L277.648 268.702Z" fill="#C6F7E7"/>
<path d="M304.488 254.997L303.738 253.689L297.483 257.299L298.227 258.606L304.488 254.997Z" fill="#C6F7E7"/>
<path d="M294.595 260.702L293.839 259.395L287.584 263.009L288.339 264.316L294.595 260.702Z" fill="#C6F7E7"/>
<path d="M267.768 274.423L274.023 270.824L274.773 272.132L268.518 275.73L267.768 274.423Z" fill="#C6F7E7"/>
<path d="M258.381 276.529L257.631 277.837L261.277 279.936L264.913 277.837L264.168 276.529L261.277 278.201L258.381 276.529Z" fill="#C6F7E7"/>
<path d="M227.301 260.33L232.994 263.617L233.702 263.976L234.343 262.658L228.057 259.033L227.301 260.33Z" fill="#C6F7E7"/>
<path d="M223.555 258.17L224.31 256.873L217.945 253.201L217.2 254.503L223.555 258.17Z" fill="#C6F7E7"/>
<path d="M243.768 269.835L244.518 268.528L238.164 264.861L237.414 266.163L243.768 269.835Z" fill="#C6F7E7"/>
<path d="M253.888 275.675L254.633 274.368L248.279 270.701L247.523 272.008L253.888 275.675Z" fill="#C6F7E7"/>
<path d="M207.674 252.329L210.57 250.673L213.461 252.34L214.206 251.033L210.57 248.934L206.93 251.022L207.674 252.329Z" fill="#C6F7E7"/>
<path d="M185.128 263.623L179.206 267.04L179.956 268.347L185.873 264.93L185.128 263.623Z" fill="#C6F7E7"/>
<path d="M194.368 258.275L188.441 261.702L189.358 262.906L195.123 259.583L194.368 258.275Z" fill="#C6F7E7"/>
<path d="M169.928 272.357L175.855 268.945L176.605 270.253L170.678 273.664L169.928 272.357Z" fill="#C6F7E7"/>
<path d="M203.608 252.943L197.686 256.36L198.441 257.667L204.363 254.251L203.608 252.943Z" fill="#C6F7E7"/>
<path d="M166.635 274.289L162.239 276.815L166.635 279.351L167.39 278.049L165.265 276.815L167.39 275.586L166.635 274.289Z" fill="#C6F7E7"/>
<path d="M210.941 304.942L211.696 303.635L218.066 307.307L217.311 308.614L210.941 304.942Z" fill="#C6F7E7"/>
<path d="M200.781 299.077L207.151 302.749L207.906 301.447L201.536 297.77L200.781 299.077Z" fill="#C6F7E7"/>
<path d="M221.048 310.783L227.418 314.46L228.168 313.163L221.798 309.48L221.048 310.783Z" fill="#C6F7E7"/>
<path d="M170.395 281.53L176.769 285.217L177.514 283.91L171.155 280.238L170.395 281.53Z" fill="#C6F7E7"/>
<path d="M180.555 287.395L181.31 286.088L187.68 289.76L186.924 291.067L180.555 287.395Z" fill="#C6F7E7"/>
<path d="M192.088 292.316L191.374 293.644L197.031 296.91L197.781 295.603L192.15 292.353L192.088 292.316Z" fill="#C6F7E7"/>
<path d="M231.181 316.636L235.093 318.891L235.848 317.589L231.926 315.334L231.181 316.636Z" fill="#C6F7E7"/>
</svg>
